<svg width="201" height="63" viewBox="0 0 201 63" fill="none" xmlns="http://www.w3.org/2000/svg">
<path d="M0.75 34.8125C0.875 32.8125 1.47917 30.9375 2.5625 29.1875C3.64583 27.3958 4.91667 25.7292 6.375 24.1875C7.875 22.6458 9.4375 21.2292 11.0625 19.9375C12.7292 18.6042 14.1875 17.375 15.4375 16.25C15.4375 16 15.3125 15.6667 15.0625 15.25C14.8542 14.8333 14.6875 14.1042 14.5625 13.0625C14.5625 11.2292 14.9792 9.5625 15.8125 8.0625C16.6458 6.52083 17.7292 5.22917 19.0625 4.1875C20.4375 3.10417 21.9583 2.27083 23.625 1.6875C25.3333 1.10417 27.0625 0.8125 28.8125 0.8125C29.5625 0.8125 30.1875 1.10417 30.6875 1.6875C31.1875 2.22917 31.5833 2.89583 31.875 3.6875C32.1667 4.47917 32.3542 5.29167 32.4375 6.125C32.5625 6.95833 32.625 7.64583 32.625 8.1875H30.4375C30.4375 7.72917 30.375 7.25 30.25 6.75C30.1667 6.25 30 5.8125 29.75 5.4375C29.5417 5.02083 29.25 4.6875 28.875 4.4375C28.5417 4.14583 28.1042 4 27.5625 4C26.6042 4 25.5625 4.27083 24.4375 4.8125C23.3125 5.3125 22.25 5.97917 21.25 6.8125C20.2917 7.60417 19.4792 8.52083 18.8125 9.5625C18.1458 10.6042 17.8125 11.6458 17.8125 12.6875C17.8125 13.2292 17.9792 13.625 18.3125 13.875C18.6875 14.0833 19.1458 14.2292 19.6875 14.3125C20.2708 14.3958 20.875 14.4375 21.5 14.4375C22.125 14.4375 22.7083 14.4792 23.25 14.5625C23.8333 14.6042 24.2917 14.75 24.625 15C25 15.25 25.1875 15.6458 25.1875 16.1875C25.1875 16.5208 25.1458 16.8542 25.0625 17.1875C24.9792 17.4792 24.7292 17.7292 24.3125 17.9375C21.8958 18.5625 19.7083 19.3125 17.75 20.1875C15.8333 21.0208 14.0833 22.0417 12.5 23.25C10.9167 24.4167 9.4375 25.8125 8.0625 27.4375C6.72917 29.0625 5.41667 31 4.125 33.25C4.125 33.3333 4.10417 33.5417 4.0625 33.875C4.0625 34.2083 4.0625 34.4167 4.0625 34.5C4.0625 36 4.47917 37.1458 5.3125 37.9375C6.1875 38.6875 7.33333 39.0625 8.75 39.0625C10.3333 39.0625 12.1042 38.8125 14.0625 38.3125C16.0625 37.8125 18 37.2708 19.875 36.6875C21.75 36.1042 23.4583 35.5625 25 35.0625C26.5833 34.5625 27.75 34.3125 28.5 34.3125C28.4583 35.2292 28.0625 36.1042 27.3125 36.9375C26.5625 37.7708 25.5833 38.5417 24.375 39.25C23.1667 39.9167 21.7917 40.5208 20.25 41.0625C18.75 41.6042 17.2083 42.0417 15.625 42.375C14.0833 42.7083 12.5625 42.9375 11.0625 43.0625C9.60417 43.1875 8.3125 43.1875 7.1875 43.0625C6.10417 43.0625 5.14583 42.8125 4.3125 42.3125C3.52083 41.8125 2.85417 41.1667 2.3125 40.375C1.8125 39.5833 1.41667 38.7083 1.125 37.75C0.875 36.75 0.75 35.7708 0.75 34.8125ZM38.125 30C38.5833 29.5417 38.8333 29.0417 38.875 28.5C38.9167 27.9583 38.9375 27.3958 38.9375 26.8125C38.9375 24.2292 38.4167 22.4583 37.375 21.5C36.375 20.5 34.625 20 32.125 20C32.125 19.625 32.3125 19.3333 32.6875 19.125C33.1042 18.9167 33.5625 18.7917 34.0625 18.75C34.6042 18.6667 35.1042 18.625 35.5625 18.625C36.0208 18.625 36.3125 18.625 36.4375 18.625C37.4375 18.625 38.3333 18.8542 39.125 19.3125C39.9167 19.7292 40.5833 20.1875 41.125 20.6875C41.7083 21.1875 42.1667 21.6667 42.5 22.125C42.875 22.5417 43.1458 22.75 43.3125 22.75C43.6875 22.75 44.0417 22.6667 44.375 22.5C44.75 22.3333 45.0833 22.1458 45.375 21.9375C45.6667 21.6875 46.2083 21.2708 47 20.6875C47.7917 20.0625 48.6042 19.4167 49.4375 18.75C50.3125 18.0417 51.125 17.3958 51.875 16.8125C52.6667 16.1875 53.2083 15.75 53.5 15.5C53.625 15.4583 53.8333 15.3958 54.125 15.3125C54.4583 15.2292 54.7917 15.1458 55.125 15.0625C55.4583 14.9375 55.7708 14.8333 56.0625 14.75C56.3958 14.6667 56.625 14.625 56.75 14.625H56.9375C56.9792 14.625 57.0208 14.625 57.0625 14.625C57.1042 14.5833 57.1458 14.5625 57.1875 14.5625C57.5208 14.5625 57.8125 14.7083 58.0625 15C58.3125 15.2917 58.4375 15.6042 58.4375 15.9375C58.4375 16.3542 58.2292 16.6458 57.8125 16.8125C57.3958 16.9375 56.8958 17.0417 56.3125 17.125C55.7708 17.2083 55.2292 17.2917 54.6875 17.375C54.1458 17.4583 53.75 17.6458 53.5 17.9375L44.625 28.4375V36.5625H52.9375C52.9375 37.4375 52.7083 38.1042 52.25 38.5625C51.7917 39.0208 51.2292 39.3542 50.5625 39.5625C49.8958 39.7292 49.1667 39.8333 48.375 39.875C47.5833 39.875 46.875 39.875 46.25 39.875C44.3333 39.875 42.7708 39.2292 41.5625 37.9375C40.3542 36.6458 39.4583 35.0833 38.875 33.25C38.4167 34 37.7917 34.9167 37 36C36.25 37.0417 35.3958 38.0625 34.4375 39.0625C33.5208 40.0208 32.5208 40.8542 31.4375 41.5625C30.3958 42.2292 29.375 42.5625 28.375 42.5625V39.75L38.125 30ZM60.3125 38.9375C60.6875 36.5625 61.3958 34.375 62.4375 32.375C63.4792 30.375 64.6667 28.6458 66 27.1875C67.375 25.6875 68.8542 24.4583 70.4375 23.5C72.0208 22.5417 73.5625 21.9375 75.0625 21.6875C76.5625 21.3958 77.9375 21.4583 79.1875 21.875C80.4792 22.2917 81.5208 23.125 82.3125 24.375C82.3125 25.3333 82.0833 26.25 81.625 27.125C81.2083 28 80.7292 28.875 80.1875 29.75C79.6875 30.625 79.2083 31.5208 78.75 32.4375C78.3333 33.3542 78.125 34.3333 78.125 35.375C78.125 36.4583 78.3542 37.3333 78.8125 38C79.3125 38.625 80.1667 38.9375 81.375 38.9375C82.375 38.9375 83.3333 38.7917 84.25 38.5C85.2083 38.2083 86.1667 38.0625 87.125 38.0625C87.2917 38.0625 87.5625 38.0833 87.9375 38.125C88.3542 38.125 88.625 38.125 88.75 38.125C88.25 38.8333 87.6042 39.4375 86.8125 39.9375C86.0208 40.4375 85.1875 40.875 84.3125 41.25C83.4375 41.5833 82.5208 41.8333 81.5625 42C80.6458 42.1667 79.7917 42.25 79 42.25C78.25 42.25 77.5833 42.0833 77 41.75C76.4167 41.4167 75.9167 40.9792 75.5 40.4375C75.0833 39.8958 74.75 39.2917 74.5 38.625C74.2917 37.9167 74.1875 37.2292 74.1875 36.5625C73.5625 37.2708 72.875 38.0208 72.125 38.8125C71.4167 39.5625 70.6458 40.25 69.8125 40.875C69.0208 41.5 68.1458 42.0208 67.1875 42.4375C66.2708 42.8542 65.3125 43.0625 64.3125 43.0625C63.2292 43.0625 62.2917 42.6667 61.5 41.875C60.7083 41.0417 60.3125 40.0625 60.3125 38.9375ZM64.4375 37C64.4375 37.3333 64.4375 37.7083 64.4375 38.125C64.4792 38.5417 64.75 38.8125 65.25 38.9375C66.2917 38.6875 67.4792 38.1458 68.8125 37.3125C70.1458 36.4375 71.3958 35.4375 72.5625 34.3125C73.7292 33.1458 74.7083 31.9167 75.5 30.625C76.2917 29.2917 76.6875 28.0208 76.6875 26.8125C76.6875 26.7292 76.6667 26.6042 76.625 26.4375C76.625 26.2292 76.625 26.0833 76.625 26C75.2083 26 73.7708 26.2917 72.3125 26.875C70.8542 27.4583 69.5417 28.2708 68.375 29.3125C67.2083 30.3125 66.25 31.4792 65.5 32.8125C64.7917 34.1458 64.4375 35.5417 64.4375 37ZM117 43.0625C116.208 43.0625 115.479 42.9167 114.812 42.625C114.188 42.3333 113.667 41.9167 113.25 41.375C112.833 40.8333 112.542 40.2292 112.375 39.5625C112.208 38.8542 112.229 38.1042 112.438 37.3125C112.438 35.9792 112.667 34.75 113.125 33.625C113.625 32.4583 114.167 31.3542 114.75 30.3125C115.375 29.2292 115.917 28.1667 116.375 27.125C116.875 26.0417 117.125 24.8958 117.125 23.6875C116.208 23.6875 115.229 23.9792 114.188 24.5625C113.146 25.1458 112.083 25.9167 111 26.875C109.958 27.8333 108.917 28.9167 107.875 30.125C106.875 31.2917 105.917 32.4792 105 33.6875C104.125 34.8542 103.354 35.9792 102.688 37.0625C102.062 38.1458 101.583 39.0417 101.25 39.75C101.167 39.7917 100.958 39.8333 100.625 39.875C100.292 39.875 100.083 39.875 100 39.875C99.3333 40.2083 98.9167 40.2083 98.75 39.875C98.625 39.5 98.625 38.9375 98.75 38.1875C98.9167 37.4375 99.1667 36.6042 99.5 35.6875C99.8333 34.7292 100.146 33.8333 100.438 33C100.771 32.125 101.021 31.4167 101.188 30.875C101.354 30.2917 101.375 30 101.25 30C101.375 29.8333 101.521 29.5625 101.688 29.1875C101.854 28.8125 102.021 28.4167 102.188 28C102.354 27.5833 102.5 27.2083 102.625 26.875C102.75 26.5 102.812 26.2083 102.812 26C102.812 25.625 102.667 25.3958 102.375 25.3125C102.125 25.1875 101.875 25.125 101.625 25.125C100.875 24.7083 100.062 24.9583 99.1875 25.875C98.3542 26.75 97.4375 28.0208 96.4375 29.6875C95.4792 31.3125 94.4167 33.1875 93.25 35.3125C92.125 37.3958 90.875 39.4167 89.5 41.375C88.5417 41.375 87.8125 41.25 87.3125 41C86.8125 40.75 86.5625 40.125 86.5625 39.125C86.8958 38.6667 87.3958 37.8125 88.0625 36.5625C88.7292 35.2708 89.4792 33.8542 90.3125 32.3125C91.1458 30.7708 92.0208 29.2083 92.9375 27.625C93.8958 26.0417 94.7917 24.7083 95.625 23.625C96.5 22.5 97.2708 21.75 97.9375 21.375C98.6458 20.9583 99.2083 21.1458 99.625 21.9375C100.333 21.4792 101.104 21.0833 101.938 20.75C102.812 20.4167 103.688 20.25 104.562 20.25C105.146 20.25 105.625 20.4375 106 20.8125C106.417 21.1458 106.729 21.5833 106.938 22.125C107.188 22.625 107.375 23.1667 107.5 23.75C107.625 24.2917 107.688 24.7708 107.688 25.1875C108.146 24.8958 108.896 24.3958 109.938 23.6875C111.021 22.9375 112.167 22.1875 113.375 21.4375C114.625 20.6875 115.833 20.0417 117 19.5C118.208 18.9167 119.188 18.625 119.938 18.625C120.604 18.625 121.167 18.875 121.625 19.375C122.125 19.8333 122.375 20.4167 122.375 21.125C120.875 24.7917 119.688 27.7292 118.812 29.9375C117.979 32.1458 117.417 33.875 117.125 35.125C116.875 36.3333 116.875 37.2083 117.125 37.75C117.417 38.25 117.917 38.6458 118.625 38.9375C119.75 38.9375 120.833 38.75 121.875 38.375C122.917 38 123.938 37.5833 124.938 37.125C125.979 36.6667 127.021 36.25 128.062 35.875C129.104 35.5 130.208 35.3125 131.375 35.3125C131.375 35.7708 131.25 36.2083 131 36.625C130.792 37 130.458 37.2917 130 37.5C129.667 37.7083 129.062 38.0417 128.188 38.5C127.354 38.9167 126.438 39.375 125.438 39.875C124.438 40.3333 123.479 40.7917 122.562 41.25C121.688 41.7083 121.062 42.0208 120.688 42.1875C119.854 42.5625 119.208 42.8125 118.75 42.9375C118.333 43.0208 117.75 43.0625 117 43.0625ZM121.875 60.5C121.875 60.4583 121.896 60.375 121.938 60.25C121.938 60.125 121.938 60.0417 121.938 60C121.979 59.875 122.042 59.6875 122.125 59.4375C122.208 59.2292 122.292 59 122.375 58.75C122.458 58.5 122.542 58.25 122.625 58C122.708 57.7917 122.771 57.6458 122.812 57.5625C123.062 56.9792 123.479 56.0417 124.062 54.75C124.646 53.5 125.312 52.0625 126.062 50.4375C126.812 48.8542 127.604 47.1875 128.438 45.4375C129.229 43.6875 130 42.0208 130.75 40.4375C131.5 38.8125 132.167 37.375 132.75 36.125C133.375 34.8333 133.833 33.875 134.125 33.25C134.667 32.375 135.417 31.3542 136.375 30.1875C137.375 29.0208 138.479 27.8333 139.688 26.625C140.896 25.4167 142.188 24.25 143.562 23.125C144.979 21.9583 146.354 20.9375 147.688 20.0625C149.062 19.1458 150.396 18.4167 151.688 17.875C152.979 17.2917 154.125 17 155.125 17C156.625 17 157.688 17.2708 158.312 17.8125C158.938 18.3542 159.25 19.4583 159.25 21.125C159.25 22.9167 158.896 24.7083 158.188 26.5C157.521 28.25 156.604 29.9167 155.438 31.5C154.271 33.0833 152.896 34.5208 151.312 35.8125C149.771 37.1042 148.125 38.1667 146.375 39C144.667 39.8333 142.896 40.4167 141.062 40.75C139.229 41.0417 137.458 40.9792 135.75 40.5625L134.938 41.375L126.812 61.625C126.688 62 126.333 62.2292 125.75 62.3125C125.167 62.4375 124.688 62.5 124.312 62.5C123.771 62.5 123.229 62.3125 122.688 61.9375C122.146 61.6042 121.875 61.125 121.875 60.5ZM151.125 30.0625C153.083 27.9792 154.354 26.3333 154.938 25.125C155.521 23.875 155.646 23 155.312 22.5C154.979 22 154.312 21.8125 153.312 21.9375C152.312 22.0625 151.188 22.4167 149.938 23C148.688 23.5833 147.417 24.3542 146.125 25.3125C144.875 26.2708 143.833 27.3125 143 28.4375C142.625 28.8542 142.167 29.4167 141.625 30.125C141.083 30.7917 140.542 31.4792 140 32.1875C139.5 32.8542 139.062 33.4583 138.688 34C138.312 34.5417 138.125 34.8542 138.125 34.9375V36.25C141 36.25 143.458 35.8333 145.5 35C147.542 34.125 149.417 32.4792 151.125 30.0625ZM161.25 37.3125C161.25 37.0208 161.271 36.5833 161.312 36C161.396 35.375 161.479 34.7708 161.562 34.1875C161.646 33.6042 161.729 33.0833 161.812 32.625C161.896 32.125 161.979 31.8125 162.062 31.6875L173.438 8.9375C173.604 8.60417 173.917 8.14583 174.375 7.5625C174.875 6.9375 175.396 6.3125 175.938 5.6875C176.521 5.02083 177.083 4.41667 177.625 3.875C178.208 3.29167 178.688 2.83333 179.062 2.5C179.354 2.58333 179.562 2.72917 179.688 2.9375C179.812 3.14583 179.896 3.39583 179.938 3.6875C179.979 3.9375 179.979 4.1875 179.938 4.4375C179.938 4.6875 179.938 4.89583 179.938 5.0625C179.938 5.27083 179.938 5.5625 179.938 5.9375C179.938 6.3125 179.917 6.5 179.875 6.5C179.458 7.625 178.812 8.95833 177.938 10.5C177.062 12.0417 176.083 13.6875 175 15.4375C173.917 17.1875 172.792 19.0208 171.625 20.9375C170.5 22.8125 169.458 24.6875 168.5 26.5625C167.583 28.3958 166.812 30.1667 166.188 31.875C165.604 33.5833 165.312 35.1458 165.312 36.5625C165.312 37.3125 165.521 37.9167 165.938 38.375C166.396 38.7917 166.875 39.1667 167.375 39.5C167.875 39.8333 168.333 40.1667 168.75 40.5C169.208 40.8333 169.438 41.2917 169.438 41.875C169.438 42.25 169.271 42.5417 168.938 42.75C168.604 42.9167 168.208 43 167.75 43C166 43 164.479 42.5208 163.188 41.5625C161.896 40.5625 161.25 39.1458 161.25 37.3125ZM177.812 39.75C177.104 38.1667 176.792 36.625 176.875 35.125C176.958 33.5833 177.292 32.1458 177.875 30.8125C178.5 29.4375 179.292 28.2083 180.25 27.125C181.25 26 182.312 25.0417 183.438 24.25C184.562 23.4167 185.688 22.7917 186.812 22.375C187.979 21.9583 189 21.7917 189.875 21.875C190.75 21.9167 191.438 22.2292 191.938 22.8125C192.438 23.3958 192.604 24.2917 192.438 25.5C192.438 27.125 191.917 28.5417 190.875 29.75C189.875 30.9583 188.75 32.0417 187.5 33C186.292 33.9583 185.167 34.8333 184.125 35.625C183.125 36.375 182.625 37.0833 182.625 37.75C182.625 38.125 182.833 38.4167 183.25 38.625C183.708 38.8333 184.229 39 184.812 39.125C185.396 39.2083 185.979 39.2708 186.562 39.3125C187.146 39.3542 187.562 39.3958 187.812 39.4375C191.729 38.6042 194.667 38.1042 196.625 37.9375C198.583 37.7292 199.812 37.75 200.312 38C200.812 38.2083 200.708 38.5625 200 39.0625C199.333 39.5208 198.292 40.0208 196.875 40.5625C195.458 41.0625 193.812 41.5208 191.938 41.9375C190.062 42.3542 188.208 42.6042 186.375 42.6875C184.542 42.7292 182.833 42.5417 181.25 42.125C179.708 41.7083 178.562 40.9167 177.812 39.75ZM188.75 25.5C187.917 25.5 187.125 25.7292 186.375 26.1875C185.625 26.6458 184.938 27.2292 184.312 27.9375C183.729 28.6042 183.229 29.3542 182.812 30.1875C182.396 30.9792 182.083 31.7292 181.875 32.4375C181.958 32.4792 182.021 32.5 182.062 32.5H182.25C182.833 32.5 183.5 32.25 184.25 31.75C185 31.25 185.708 30.6458 186.375 29.9375C187.042 29.1875 187.604 28.4167 188.062 27.625C188.521 26.8333 188.75 26.125 188.75 25.5Z" fill="black"/>
</svg>
