<svg width="50" height="80" viewBox="0 0 50 80" fill="none" xmlns="http://www.w3.org/2000/svg">
<path d="M25 0C11.19 0 0 11.145 0 24.95C0 48.82 25 79.95 25 79.95C25 79.95 50 48.815 50 24.95C50 11.15 38.81 0 25 0ZM25 38.755C21.4196 38.755 17.9858 37.3327 15.4541 34.8009C12.9223 32.2692 11.5 28.8354 11.5 25.255C11.5 21.6746 12.9223 18.2408 15.4541 15.7091C17.9858 13.1773 21.4196 11.755 25 11.755C28.5804 11.755 32.0142 13.1773 34.5459 15.7091C37.0777 18.2408 38.5 21.6746 38.5 25.255C38.5 28.8354 37.0777 32.2692 34.5459 34.8009C32.0142 37.3327 28.5804 38.755 25 38.755Z" fill="black"/>
</svg>
