<svg width="60" height="60" viewBox="0 0 60 60" fill="none" xmlns="http://www.w3.org/2000/svg">
<path d="M30 9.375C25.9208 9.375 21.9331 10.5846 18.5414 12.8509C15.1496 15.1172 12.5061 18.3384 10.945 22.1072C9.38394 25.8759 8.97549 30.0229 9.77131 34.0237C10.5671 38.0246 12.5315 41.6996 15.4159 44.5841C18.3004 47.4685 21.9754 49.4329 25.9763 50.2287C29.9771 51.0245 34.1241 50.6161 37.8929 49.055C41.6616 47.494 44.8828 44.8504 47.1491 41.4586C49.4154 38.0669 50.625 34.0792 50.625 30C50.625 24.5299 48.452 19.2839 44.5841 15.4159C40.7161 11.548 35.4701 9.375 30 9.375Z" stroke="black" stroke-width="2" stroke-miterlimit="10"/>
<path d="M27.1875 18.75C25.5187 18.75 23.8874 19.2449 22.4999 20.172C21.1123 21.0991 20.0309 22.4169 19.3923 23.9586C18.7537 25.5004 18.5866 27.1969 18.9121 28.8336C19.2377 30.4703 20.0413 31.9737 21.2213 33.1537C22.4013 34.3337 23.9047 35.1373 25.5414 35.4629C27.1781 35.7884 28.8746 35.6213 30.4164 34.9827C31.9581 34.3441 33.2759 33.2627 34.203 31.8751C35.1302 30.4876 35.625 28.8563 35.625 27.1875C35.625 26.0795 35.4068 24.9823 34.9827 23.9586C34.5587 22.9349 33.9372 22.0048 33.1537 21.2213C32.3702 20.4378 31.4401 19.8163 30.4164 19.3923C29.3927 18.9682 28.2955 18.75 27.1875 18.75V18.75Z" stroke="black" stroke-width="2" stroke-miterlimit="10"/>
<path d="M33.239 33.2391L39.375 39.3751" stroke="black" stroke-width="2" stroke-miterlimit="10" stroke-linecap="round"/>
</svg>
